<svg xmlns="http://www.w3.org/2000/svg" width="25" height="25"><path d="M22.5 0h-20A2.507 2.507 0 0 0 0 2.5v20A2.507 2.507 0 0 0 2.5 25h20a2.507 2.507 0 0 0 2.5-2.5v-20A2.507 2.507 0 0 0 22.5 0zm-10 7.5a5 5 0 1 1-5 5 5.015 5.015 0 0 1 5-5zm-9.375 15a.59.59 0 0 1-.625-.625V11.25h2.625A4.252 4.252 0 0 0 5 12.5a7.5 7.5 0 0 0 15 0 4.252 4.252 0 0 0-.125-1.25H22.5v10.625a.59.59 0 0 1-.625.625zM22.5 5.625a.59.59 0 0 1-.625.625h-2.5a.59.59 0 0 1-.625-.625v-2.5a.59.59 0 0 1 .625-.625h2.5a.59.59 0 0 1 .625.625z" fill="#f7f7f7"/></svg>