<svg xmlns="http://www.w3.org/2000/svg" width="25" height="25"><path d="M12.499 24.999a12.412 12.412 0 0 1-4.867-.981 12.492 12.492 0 0 1-3.973-2.679 12.477 12.477 0 0 1-2.678-3.974 12.422 12.422 0 0 1-.982-4.866 12.414 12.414 0 0 1 .982-4.865A12.456 12.456 0 0 1 3.659 3.66 12.476 12.476 0 0 1 7.632.981a12.413 12.413 0 0 1 4.867-.982 12.408 12.408 0 0 1 4.863.982 12.463 12.463 0 0 1 3.975 2.679 12.483 12.483 0 0 1 2.68 3.974 12.446 12.446 0 0 1 .982 4.865 12.457 12.457 0 0 1-.982 4.866 12.483 12.483 0 0 1-2.68 3.974 12.479 12.479 0 0 1-3.975 2.679 12.407 12.407 0 0 1-4.863.981zm-.854-16.113a1.555 1.555 0 0 0-1.326.9 3.2 3.2 0 0 0-.086 2.982c-.137.678-.32 1.36-.5 2.021a14.732 14.732 0 0 0-.693 6.209c1.479-1.073 1.969-3.1 2.381-5.256.182.11.344.222.5.33a2.914 2.914 0 0 0 1.58.66c.117.008.234.013.352.013a4.093 4.093 0 0 0 3.154-1.474 7.054 7.054 0 0 0 1.453-5.48c-.355-2.583-2.691-4.318-5.814-4.318a8.468 8.468 0 0 0-.928.053 5.8 5.8 0 0 0-5.258 5.355c-.076 2.062.639 3.228 2.182 3.569a1.435 1.435 0 0 0-.045-1.754 2.241 2.241 0 0 1-.352-.821 3.968 3.968 0 0 1 .117-1.807 4.142 4.142 0 0 1 .828-1.5 4.84 4.84 0 0 1 1.621-1.232 4.626 4.626 0 0 1 1.961-.454 3.723 3.723 0 0 1 2.711 1.122 3.678 3.678 0 0 1 .877 2.367 6.606 6.606 0 0 1-.471 2.84 3.959 3.959 0 0 1-.953 1.415 2.068 2.068 0 0 1-1.4.563 2.259 2.259 0 0 1-.432-.042 1.236 1.236 0 0 1-.881-.541 1.717 1.717 0 0 1-.117-1.148 10.689 10.689 0 0 1 .387-1.434 7.348 7.348 0 0 0 .428-1.834 1.108 1.108 0 0 0-.711-1.193 1.55 1.55 0 0 0-.563-.11z" fill="#f7f7f7"/></svg>