<svg xmlns="http://www.w3.org/2000/svg" width="30.834" height="25"><path d="M30.833 2.96a13.2 13.2 0 0 1-3.642 1A6.275 6.275 0 0 0 29.972.473 12.649 12.649 0 0 1 25.964 2a6.323 6.323 0 0 0-10.935 4.31 6.482 6.482 0 0 0 .146 1.438 17.9 17.9 0 0 1-13.029-6.6 6.3 6.3 0 0 0 1.942 8.431A6.252 6.252 0 0 1 1.233 8.8v.069a6.34 6.34 0 0 0 5.064 6.2 6.322 6.322 0 0 1-1.657.208 5.6 5.6 0 0 1-1.2-.108 6.38 6.38 0 0 0 5.91 4.396 12.718 12.718 0 0 1-7.837 2.69A11.864 11.864 0 0 1 0 22.169 17.823 17.823 0 0 0 9.7 25c11.632 0 17.991-9.615 17.991-17.95 0-.279-.01-.548-.023-.815a12.6 12.6 0 0 0 3.165-3.275z" fill="#f7f7f7"/></svg>