<svg xmlns="http://www.w3.org/2000/svg" width="1920.002" height="400.003"><path d="M1920 400.003H0l.008-400H893a19.736 19.736 0 0 1 11.783 3.843 19.915 19.915 0 0 1 7.2 10.1 50.011 50.011 0 0 0 1.96 5.5 49.909 49.909 0 0 0 10.726 15.9 50.01 50.01 0 0 0 15.895 10.726A49.576 49.576 0 0 0 960 50.003a49.779 49.779 0 0 0 16.272-2.717 49.889 49.889 0 0 0 14.041-7.543 50.282 50.282 0 0 0 10.9-11.454 50.834 50.834 0 0 0 4.947-9.061 48.462 48.462 0 0 0 1.9-5.393 19.925 19.925 0 0 1 7.205-10.021A19.734 19.734 0 0 1 1027 .003h893v400z" fill="#1c1c1c"/></svg>