<svg xmlns="http://www.w3.org/2000/svg" width="108" height="37.062"><path d="M99.511 18.108c-.607-1.539-1.286-2.735-4.795-2.735-2.427 0-3.467 1-3.467 2 0 1.1.863 2.018 3.536 2.611l5.672 1.512a7.091 7.091 0 0 1 5.513 7.052 7.774 7.774 0 0 1-2.018 5.547c-1.227 1.279-3.086 2.968-9.246 2.968-8.473 0-11.257-5.357-11.257-8.591h6.587c.648 2.364 2.271 3.262 5.481 3.262 2.226 0 4.136-.794 4.136-2.5 0-1.619-1.387-2.229-3.172-2.718l-4.483-1.21c-2.16-.659-3.966-1.186-5.242-2.264a6.686 6.686 0 0 1 .534-10.592 11.341 11.341 0 0 1 7.34-2.236 12.568 12.568 0 0 1 7.763 2.288c1.532 1.04 3.353 3.6 3.353 5.617M.002.014c.052.225 13.105 36.75 13.105 36.75h7.79l12-30.405h74.54l.565-6.355h-80.82l-9.957 25.195L8.282 0H.019m64.427 23.607l9.728 13.136h6.088V10.765h-7.01v14.128l-8.806-14.128H57.72v25.978h6.726V23.607zm-37.1 13.136h7.471l1.387-4.063h9.891l1.432 4.063h7.357l-9.416-25.978h-7.922zm10.956-8.765l2.895-8.636 2.857 8.636h-5.769z" fill="#E8E8E8"/></svg>