<svg xmlns="http://www.w3.org/2000/svg" width="638.107" height="272.826"><path d="M637.785 113.697c-3.676-9.744-12.281-15.708-20.942-19.753-51.029-16.449-99.042-40.09-146.542-63.727-24.021-11.1-49.561-17.89-76.1-23.225-69.992-14.354-142.31-5.516-205.211 16.573-59 21.682-112.5 59.438-178.447 63.542l-4.927 4.258c-2.557 7.71-7.567 16.352-4.813 25.111l43.557 79.751c3.787 5.412 5.565 13.666 13.289 15.264l33.4 1.1c10.624 2.128 23.747-.523 32.308 7.391 7.073 10.781-5.3 25.561 5.641 35.454 13.348 12.352 30.69 17.038 49.582 17.385 16.5-1.155 34.444-3.233 43.917-17.127 4.468-6.681 1.322-19.824 12.475-21.075l33.329 5.456c63.34 6.984 131.155 5.332 191-8.078 3.874-.433 9.7-.8 12.055 3.111 3.229 8.323 7.4 18.071 17.029 21.138 29.453 5.4 56.75-4.254 78.412-22.761 12.307-10.913 15.524-27.808 13.893-44.306 3.994-6.7 12.273-8.983 18.166-14.185 18.237-16.129 42.324-34.591 38.929-61.297zm-28.762-15.543c-2.57 7.224-4.141 14.932-8.636 20.676l-8.652-3.074a73.106 73.106 0 0 1 8.618-21.158zm-24.078-7.7c3.844.56 7.735 1.589 10.105 3.1l-8.127 20.676a17.071 17.071 0 0 1-9.6-4.069c2.058-6.742 4.117-13.972 7.622-19.709zm-13.66 5.082l.909 2.914c1.716 12.62.993 25.192 3.193 37.36 4.843.08 8.3-3.722 12.666-5.1 2.354 3.918 2.757 9.737 2.657 14.574-10.276 5.639-20.575 12.709-31.79 17.345-2.048-20.885-2.6-43.658-3.645-65.465a57.4 57.4 0 0 1 16.011-1.63zm-32.007 2.3l.915 3.406c1.082 18.428.782 35.389 3.84 53.35 2.89 1.053 5.837-1.814 9.255-2.731 1.867 4.391 1.271 9.236 1.205 13.579a128.6 128.6 0 0 1-27.361 13.053c-2.461-24.727-3.373-53.333-3.874-79.009a58.109 58.109 0 0 1 16.02-1.649zm-59.677 5.205c5.4-2.82 13.122-1.705 19.895-2.559 10.219-2.707 6.61 10.3 9.895 15.224 4.461 21.383 9.881 42.795 13.828 64.651-4.907 2.843-9.774 5.144-15.607 5.549-1.373-3.409-1.773-7.793-3.654-11.22-3.39-1.5-7.289 1.331-10.691 1.732-3.482 4.292-1.668 11.13-3.2 16.414-5.877 1.836-11.232 4.642-17.054 5.016l-.449-2.429zm-58.191 3.277c4.894-2.334 11.659-.753 16.992-1.629l2.309 5.37q3.29 20.406 7.99 40.846c1.939-.451 1.5-2.889 1.535-4.813l2.626-38.224c-.932-1 .534-2.905.559-3.871 4.871-1.351 10.692-1.256 15.995-1.154-.61 33.406-2.644 65.822-5.167 97.76-6.808 2.277-13.646 4.586-20.432 5.423-4.147-11.7-5.891-23.348-8.581-35.037-1.949-.028-1.5 2.4-1.511 4.334l-3.54 33.842c-6.361 2.784-14.113 2.154-20.9 3.484l-1.869-4.379-20.923-99.205 1.474-.947 18.417-1.114 1.89 2.455c1.642 16.99 4.721 33.511 7.8 50.038 3.248-17.377 3.559-34.811 5.337-53.179zm-20.4-49.307c-5.751-2.033-12.937-7.025-19.3-2.769-2 1.906-3.5 4.784-1.6 6.755 9.572 6.476 26.126 1.443 30.708 15.585 2.323 5.857 1.212 13.58-3.242 17.861-7.408 8.1-18.585 10.319-29.686 7.677-4.814-1.53-10.621-2.619-14.9-6.089a30.543 30.543 0 0 1 6.98-11.491c5.81 1.09 11.537 5.059 18.815 3.738 2.921.051 5.867-1.352 6.869-4.228.208-10.653-12.955-5.567-19.7-8.117-6.283-1.094-11.492-6.5-13.33-12.357-1.331-6.32-.261-12.612 4.178-16.883 10.814-8.511 28.751-8.189 40.216-.7.418 3.872-3.045 8.172-6.007 11.018zm-103.159 156.5l-1.452.455-16.442-1.75-1.349-4.863-4.663-88.745.525-2.888c4.868-.88 10.668-.3 16.022-1.163 2.626 14.1 2.375 28.129 4.039 42.681 3.351 2.994 9.207.689 13.545.761l1.01-1.446-2.127-42.178c4.859-1.851 11.185-2.2 16.993-2.087l.906 2.411 6.406 99.9c.48.978-.527 1.944-1.477 1.923-5.812-.587-12.145 1.227-16.453-2.243l-2.7-36.856c-4.316-2.02-9.69.293-14.054.223l-.985 1.446zm-39.619-4.622l-.522 1.461-15.462-2.233c-2.452-24.244-3.945-48.517-6.4-72.768l-.943-1.469-14.05.223c.085-4.844-2.24-10.7.271-15.009 15.039-1.172 31.042-1.843 46.066-2.546l1.429 1.48.234 13.081a64.814 64.814 0 0 1-14.055 1.194l-1.49 1.9zm8.8-110.262l-1.6 8.691a53.547 53.547 0 0 1-15.026.7c3.745-19.316 7.955-37.65 12.652-55.97 6.824-2.287 16.015-2.123 23.295-1.98l5.552 14.144 12.816 39.946c-4.394 1.856-9.712.789-15.044 1.658-2.365-3.423-1.274-10.188-7.083-10.291-5.333.365-12.084-1.203-15.559 3.099zm57.533-19.774c-.96-.5-.983.481-1.48.946l1.027 22.793c-3.908 2.341-9.207.793-14.063 1.683l-.929-2.937c-1.136-16.481-2.727-34.914-2.406-51.865 4.856-1.369 10.675-1.743 15.992-2.121l1.934 1 14.129 22.057 1.959-.453c-.871-6.324-.223-15.016-1.051-22.789 4.388-1.856 10.687-1.265 15.532-1.175 1.588 18.444 2.7 36.881 3.348 54.8-5.859 1.835-12.6.75-18.413 1.108-5.676-7.84-9.428-15.177-15.576-23.05zm46.909 30.412l1.458.516c.866 4.394.767 9.207.705 13.573l-17.487 2.586-1.491 1.91 2.422 26.215c4.322 2.02 10.159.183 14.514 1.212.852 5.353 1.746 11.173 1.137 15.99-3.919 2.384-8.726.829-13.108 2.2l-1 1.436 1.463 25.229 2.394 1.962 16.482.307c1.882 3.918 1.79 8.752 1.7 13.11-11.671 2.211-24.756 1.969-37.354 2.211l-.888-3.392-6.573-91.676-.269-10.656c11.664-2.193 23.764-1.982 35.895-2.733zm-163.712-79.05c7.407 18.531 11.4 38.449 17.836 56.979l2.451-1.4 10.722-56.472 1.5-1.912 151.29-9.31c4.851 1.055 13.653-4.1 13.515 3.638-1.054 3.371 2.228 8.763-2.143 10.611l-133.364 8.192-14.052 1.2-2 2.857-12.328 64.207-2.435.922-22.313 1.038-2.83-3.931c-7.767-25.321-16.514-50.182-24.271-75.515 5.815-.861 12.626-1.714 18.422-1.103zm-5.065 90.96l.455 1.464.256 12.1c-5.348 1.369-10.684 1.27-16.5 2.127-2.493 3.335-.155 7.74-.226 12.116 4.3 2.485 8.7-.321 14.029.728 1.387 3.9.79 9.708 1.182 14.564-4.38 1.352-9.223.8-14.09 2.15-1.643 10.635 1.088 20.369.408 30.534-5.336.375-11.591-1.688-16.908-2.269-2.473-23.763-4.475-46.575-4.982-71.284 12.141-1.713 23.78-2.94 36.38-2.229zm-78.084 4.856c11.176-1.747 23.295-2 34.926-2.746l.949 1.942 1.232 11.663c-.516.949-1.488 1.408-2.953 1.895l-14.059 1.169c-2 2.871-.622 7.247-.184 10.653 3.325 2.976 9.172 1.137 13.53 1.223l1.415 1.494.714 13.564c-3.914 2.828-10.659.274-14.576 3.111-1.1 6.756.716 13.586.1 20.844a100.837 100.837 0 0 1-16.921-2.25l-1.414-1.981-3.262-59.629zm-24.2-.444c5.774 1.547 11.06 4.569 14.364 8.986 8 12.73 8.152 30.176 2.577 43.622-4 7.19-11.323 10.444-19.1 11.288a22.111 22.111 0 0 1-20.605-12.018c-5.591-12.2-7.184-30.162-.186-42.138 5.465-7.162 13.81-13.31 22.95-9.739zm-35.209-8.9c4.269 5.423 5.115 12.213 8.878 18.107-1.988 2.867-6.37 3.74-9.283 5.15-2.832-5.379-7.062-11.755-8.877-18.57a14.4 14.4 0 0 1 9.279-4.69zm-14.103 29.286c-2.775-6.339-7.029-11.737-8.85-18.575a18.731 18.731 0 0 1 9.75-3.683c3.291 5.874 6.55 12.238 8.378 18.563-2.931 1.877-6.378 4.734-9.278 3.695zM191.38 262.407c-15.589 3.571-35.427 2.723-45.853-9.586-.9-3.864 1.567-6.27 4.516-8.142 15.084-4.082 32.465-.857 44.41 7.608l1.879 2.933c-.048 3.408-2.522 5.773-4.952 7.187zm23.894-9.735a5.137 5.137 0 0 1-2.974 3.33l-2.883-.541c-17.535-20.654-48.97-23.645-74.294-16.376-2.407-.534-2.368-2.972-2.33-4.888a11.151 11.151 0 0 1 6.474-9.589c26.7-3.838 54.717.065 74.749 17.382 3.348 2.013 1.809 7.288 1.257 10.682zm337.983-20.407c-9.381 10.969-21.135 16.572-35.166 16.8-2.445-1.01-5.33-1.064-6.713-4-.848-6.317 4.069-10.1 8-13.907 8.383-7.114 19.091-10.768 30.671-8.618l2.861 1.955c1.921 2.001 1.376 4.89.347 7.77zm13.838-14.738c-1.508 2.381-4.873 1.354-6.793.849-17.32-6.642-36.825.746-50.125 13.091-7.818 2.774-10.6 23.55-21.536 11.7-2.372-1.945-1.847-5.341-.823-7.753 17.266-18.069 38.322-30.283 62.575-31.29 6.3.592 14.068-1.184 17.36 4.679.423 2.908 1.333 6.801-.658 8.72zm62.62-85.066c-16.941 24.866-47.252 39.805-72.679 53.867-73.894 40.3-159.949 57.585-249.919 50.6-60.505-2.569-115.392-20.532-175.354-26.005l-67.208-6.093c-.934-.971-2.882-1.015-2.376-2.934 1.023-2.9 1.083-6.294 4.02-7.68 26.647.5 51.27 4.354 76.387 7.706l116.906 16.7c80.694 11.173 166.03 6.451 237.7-19.831 47.282-15.6 90.389-42.394 131.207-73.639 2.384 1.5 1.822 4.89 1.316 7.305z" fill="#FFFFFF"/><path d="M99.039 173.503c7.4-7.613 2.291-19.318 1.5-28.552-1.4-2.918-6.68-5.433-9.156-2.11-3.071 8.2-1.806 18.849.456 27.143.915 2.92 4.281 3.955 7.2 3.519zM500.443 156.221a143.442 143.442 0 0 0-4.887-24.792 113.737 113.737 0 0 0-1.936 25.626 6.891 6.891 0 0 0 6.823-.834zM271.724 81.267c2.392 1.512 5.316.588 7.753-.328a40.849 40.849 0 0 0-5.1-12.7c-2 3.854-1.603 8.688-2.653 13.028z" fill="#FFFFFF"/></svg>