<svg xmlns="http://www.w3.org/2000/svg" width="530" height="310.127"><path d="M30 284.627l-.4 13.78-2.61 11.72H16.766l2.452-11.717 5.315-13.783zm-16.565 0l-.6 13.78-2.61 11.72H0l2.558-11.717 5.413-13.783zM155.69 35.623h8.914v31.156h-8.914zm43.938 31.779a29.448 29.448 0 0 1-7.428-.934 18.377 18.377 0 0 1-5.852-2.492l2.926-6.5a19.037 19.037 0 0 0 4.907 2.225 18.876 18.876 0 0 0 5.492.846q5.132 0 5.132-2.537a2.1 2.1 0 0 0-1.463-1.981 27.138 27.138 0 0 0-4.7-1.358 45.3 45.3 0 0 1-5.942-1.625 10.006 10.006 0 0 1-4.1-2.782 7.462 7.462 0 0 1-1.711-5.163 8.866 8.866 0 0 1 1.576-5.141 10.526 10.526 0 0 1 4.7-3.627 19.56 19.56 0 0 1 7.676-1.335 27.372 27.372 0 0 1 6.122.69 18.878 18.878 0 0 1 5.312 2.025l-2.746 6.543a18.506 18.506 0 0 0-8.733-2.4 7.391 7.391 0 0 0-3.872.779 2.331 2.331 0 0 0-1.215 2.025 2.011 2.011 0 0 0 1.441 1.869 26.276 26.276 0 0 0 4.637 1.291 43.828 43.828 0 0 1 5.965 1.625 10.306 10.306 0 0 1 4.1 2.76 7.318 7.318 0 0 1 1.733 5.141 8.694 8.694 0 0 1-1.576 5.074 10.723 10.723 0 0 1-4.727 3.627 19.312 19.312 0 0 1-7.654 1.355zm26.561-24.791h-9.679v-6.988h28.226v6.988H235.1v24.168h-8.914zm24.13-6.988h8.914v31.156h-8.914zm17.512 0h8.914v24.168h15.036v6.988h-23.95zm29.712 0h8.914v24.168h15.036v6.988h-23.95zm75.045 0v31.156h-8.914V54.63h-12.155v12.149h-8.914V35.623h8.914V47.33h12.155V35.623zm29.666 25.107h-13.325l-2.476 6.049h-9.094l13.911-31.156h8.779L414 66.779h-9.27zm-2.611-6.5l-4.052-9.97-4.051 9.97zm49.34-18.6l-13.506 31.149H426.7l-13.46-31.156h9.634l8.553 20.3 8.733-20.3zm29.4 24.346v6.81h-25.3V35.623h24.711v6.81H461.9v5.252h14v6.587h-14v5.7zM293.04 121.179l-.09-16.513-8.1 13.442h-3.962l-8.058-13v16.071h-8.238V90.023h7.338L283 108.004l10.8-17.981h7.338l.09 31.156zm33.628-11.172v11.172h-8.914v-11.306l-12.02-19.851h9.409l7.473 12.373 7.473-12.373h8.643zM367.5 96.83v6.854h13.911v6.81H367.5v10.685h-8.914V90.023H383.3v6.807zm47.539 17.536v6.81h-25.3V90.023h24.715v6.807h-15.892v5.252h14v6.587h-14v5.7zm32.5 0v6.81h-25.3V90.023h24.715v6.807h-15.889v5.252h14v6.587h-14v5.7zm13.914-17.356h-9.679v-6.987H480v6.987h-9.634v24.169h-8.914zM47.512 176.201a19.023 19.023 0 0 1-8.981-2.092 15.826 15.826 0 0 1-6.258-5.786A15.559 15.559 0 0 1 30 160a15.559 15.559 0 0 1 2.273-8.323 15.826 15.826 0 0 1 6.258-5.786 19.023 19.023 0 0 1 8.981-2.092 19.023 19.023 0 0 1 8.981 2.092 15.826 15.826 0 0 1 6.258 5.786A15.559 15.559 0 0 1 65.024 160a15.559 15.559 0 0 1-2.273 8.323 15.826 15.826 0 0 1-6.258 5.786 19.023 19.023 0 0 1-8.981 2.092zm0-7.3a8.515 8.515 0 0 0 4.322-1.113 8.045 8.045 0 0 0 3.061-3.138 9.414 9.414 0 0 0 1.125-4.651 9.414 9.414 0 0 0-1.125-4.651 8.045 8.045 0 0 0-3.061-3.138 8.515 8.515 0 0 0-4.322-1.113 8.515 8.515 0 0 0-4.322 1.113 8.046 8.046 0 0 0-3.061 3.138A9.414 9.414 0 0 0 39 160a9.414 9.414 0 0 0 1.125 4.651 8.045 8.045 0 0 0 3.061 3.138 8.515 8.515 0 0 0 4.326 1.113zm54.427-24.48v31.156H94.6l-13.911-16.6v16.6h-8.733v-31.155h7.338l13.911 16.6v-16.6zm30.612 6.988h-9.679v-6.987H151.1v6.988h-9.634v24.168h-8.914zm54.112-6.988v31.156h-8.914V163.43h-12.155v12.151h-8.914v-31.159h8.914v11.708h12.155v-11.708zm33.854 24.346v6.81h-25.3v-31.155h24.715v6.808H204.04v5.252h14v6.587h-14v5.7zm43.667-9.436h7.878v12.909a20.643 20.643 0 0 1-6.212 2.938 24.985 24.985 0 0 1-7.023 1.024 18.957 18.957 0 0 1-8.914-2.07 15.545 15.545 0 0 1-6.212-5.764A15.759 15.759 0 0 1 241.45 160a15.759 15.759 0 0 1 2.25-8.37 15.474 15.474 0 0 1 6.258-5.764 19.425 19.425 0 0 1 9.049-2.07 20.359 20.359 0 0 1 7.923 1.469 15.265 15.265 0 0 1 5.852 4.228l-5.672 5.074a10.047 10.047 0 0 0-7.653-3.472 8.927 8.927 0 0 0-6.528 2.426 8.654 8.654 0 0 0-2.476 6.476 9.322 9.322 0 0 0 1.125 4.607 8.024 8.024 0 0 0 3.151 3.16 9.324 9.324 0 0 0 4.637 1.135 11.5 11.5 0 0 0 4.817-1.024zm29.577 7.967H288.9v8.279h-8.914v-31.155h14.406a18.152 18.152 0 0 1 7.428 1.4 10.986 10.986 0 0 1 4.862 4.006 10.89 10.89 0 0 1 1.711 6.12 10.758 10.758 0 0 1-1.6 5.9 10.773 10.773 0 0 1-4.569 3.939l6.8 9.792h-9.544zm5.627-11.35a4.223 4.223 0 0 0-1.4-3.383 6.2 6.2 0 0 0-4.142-1.2H288.9v9.125h4.952a6.278 6.278 0 0 0 4.142-1.179 4.156 4.156 0 0 0 1.394-3.361zm32.053 20.251a19.023 19.023 0 0 1-8.981-2.092 15.826 15.826 0 0 1-6.257-5.786 15.559 15.559 0 0 1-2.273-8.323 15.559 15.559 0 0 1 2.273-8.323 15.826 15.826 0 0 1 6.257-5.786 19.023 19.023 0 0 1 8.981-2.092 19.023 19.023 0 0 1 8.981 2.092 15.825 15.825 0 0 1 6.258 5.786 15.559 15.559 0 0 1 2.273 8.323 15.559 15.559 0 0 1-2.273 8.323 15.825 15.825 0 0 1-6.258 5.786 19.023 19.023 0 0 1-8.981 2.094zm0-7.3a8.515 8.515 0 0 0 4.322-1.113 8.046 8.046 0 0 0 3.061-3.138 9.414 9.414 0 0 0 1.125-4.651 9.414 9.414 0 0 0-1.125-4.651 8.046 8.046 0 0 0-3.061-3.138 8.515 8.515 0 0 0-4.322-1.113 8.515 8.515 0 0 0-4.322 1.113 8.046 8.046 0 0 0-3.061 3.138 9.414 9.414 0 0 0-1.125 4.651 9.414 9.414 0 0 0 1.125 4.651 8.046 8.046 0 0 0 3.061 3.138 8.515 8.515 0 0 0 4.322 1.116zm38.986 7.3q-7.023 0-10.917-3.783t-3.894-10.727v-17.267h8.914v17q0 7.477 5.987 7.477 5.942 0 5.942-7.477v-17h8.779v17.269q0 6.943-3.894 10.727t-10.918 3.783zm53.073-31.777v31.156h-7.338l-13.911-16.6v16.6h-8.731v-31.156h7.338l13.911 16.6v-16.6zm8.553 0h14.9a21.061 21.061 0 0 1 9.184 1.914 14.528 14.528 0 0 1 6.212 5.43 15.168 15.168 0 0 1 2.206 8.234 15.168 15.168 0 0 1-2.206 8.234 14.528 14.528 0 0 1-6.212 5.43 21.061 21.061 0 0 1-9.184 1.914h-14.9zm14.547 24.124a9.2 9.2 0 0 0 6.505-2.27 8.127 8.127 0 0 0 2.453-6.276 8.127 8.127 0 0 0-2.458-6.276 9.2 9.2 0 0 0-6.505-2.27h-5.627v17.091zm27.236-2.581a5.059 5.059 0 0 1 3.646 1.38 4.765 4.765 0 0 1 1.441 3.605 8 8 0 0 1-.27 2.047 21.034 21.034 0 0 1-1.215 3.071l-2.836 6.5h-5.357l2.116-7.255a4.388 4.388 0 0 1-1.958-1.714 4.954 4.954 0 0 1-.7-2.648 4.765 4.765 0 0 1 1.441-3.605 5.118 5.118 0 0 1 3.689-1.382zm-339.121 32.857h8.914v31.156h-8.914zm39.751 31.779a16.263 16.263 0 0 1-6.3-1.179 11.543 11.543 0 0 1-4.637-3.4l4.862-5.7q2.521 3.249 5.447 3.249a3.709 3.709 0 0 0 2.949-1.157 4.993 4.993 0 0 0 1.013-3.383V205.63h-10.9v-6.81h19.718v19.673q0 6.053-3.084 9.08t-9.071 3.028zm34.979 0q-7.023 0-10.917-3.783t-3.894-10.727v-17.27h8.914v17q0 7.477 5.987 7.477 5.942 0 5.942-7.477v-17h8.779v17.269q0 6.943-3.894 10.727t-10.92 3.784zm34.169 0a29.448 29.448 0 0 1-7.428-.935 18.376 18.376 0 0 1-5.852-2.492l2.926-6.5a19.036 19.036 0 0 0 4.907 2.225 18.877 18.877 0 0 0 5.492.846q5.132 0 5.132-2.537a2.1 2.1 0 0 0-1.463-1.981 27.135 27.135 0 0 0-4.7-1.358 45.3 45.3 0 0 1-5.942-1.625 10.006 10.006 0 0 1-4.1-2.782 7.462 7.462 0 0 1-1.711-5.163 8.867 8.867 0 0 1 1.576-5.141 10.526 10.526 0 0 1 4.7-3.627 19.56 19.56 0 0 1 7.676-1.335 27.371 27.371 0 0 1 6.122.69 18.879 18.879 0 0 1 5.312 2.025l-2.746 6.543a18.506 18.506 0 0 0-8.733-2.4 7.391 7.391 0 0 0-3.872.779 2.331 2.331 0 0 0-1.215 2.025 2.011 2.011 0 0 0 1.441 1.869 26.277 26.277 0 0 0 4.637 1.291 43.824 43.824 0 0 1 5.965 1.625 10.306 10.306 0 0 1 4.1 2.76 7.318 7.318 0 0 1 1.733 5.141 8.694 8.694 0 0 1-1.576 5.074 10.723 10.723 0 0 1-4.727 3.627 19.312 19.312 0 0 1-7.658 1.356zm26.561-24.791h-9.679v-6.988h28.226v6.988h-9.634v24.168h-8.914zm88.911-6.988l-10.219 31.156h-9.544l-6.032-18.961-6.3 18.961h-9.544l-10.219-31.156h9.184l6.348 19.9 6.663-19.9h8.193l6.348 20.073 6.618-20.073zm30.747 24.346v6.81h-25.3v-31.157h24.715v6.81h-15.891v5.252h14v6.587h-14v5.7zm28.316.757H404.82l-2.476 6.053h-9.094l13.911-31.156h8.779l13.956 31.156h-9.274zm-2.611-6.5l-4.052-9.97-4.052 9.97zm32.908 4.273h-4.866v8.279h-8.914v-31.156h14.406a18.152 18.152 0 0 1 7.428 1.4 10.986 10.986 0 0 1 4.862 4.006 10.89 10.89 0 0 1 1.711 6.12 10.758 10.758 0 0 1-1.6 5.9 10.773 10.773 0 0 1-4.569 3.939l6.8 9.792h-9.544zm5.627-11.35a4.223 4.223 0 0 0-1.4-3.383 6.2 6.2 0 0 0-4.142-1.2h-4.951v9.124h4.952a6.278 6.278 0 0 0 4.142-1.179 4.156 4.156 0 0 0 1.396-3.361zM104.865 268.13a8.836 8.836 0 0 1 4.232 2.915 7.591 7.591 0 0 1 1.531 4.785 7.16 7.16 0 0 1-3.331 6.32q-3.331 2.225-9.634 2.225H80.646v-31.154h16.116q6.032 0 9.184 2.2a6.894 6.894 0 0 1 3.151 5.942 7.338 7.338 0 0 1-1.1 3.984 7.682 7.682 0 0 1-3.132 2.783zm-15.4-8.546v6.009h6.122q4.5 0 4.5-3.027 0-2.982-4.5-2.982zm7.473 18.427q4.682 0 4.682-3.16t-4.682-3.16h-7.473v6.32zm45.873-.445v6.81h-25.3v-31.155h24.715v6.81h-15.891v5.252h14v6.587h-14v5.7zm13.911-17.358h-9.679v-6.988h28.226v6.988h-9.634v24.168h-8.914zm31.288 0h-9.679v-6.988h28.226v6.988h-9.634v24.168h-8.914zm49.43 17.358v6.81h-25.3v-31.155h24.715v6.81h-15.891v5.252h14v6.587h-14v5.7zm20.978-1.469h-4.862v8.279h-8.914v-31.155h14.406a18.152 18.152 0 0 1 7.428 1.4 10.986 10.986 0 0 1 4.862 4.006 10.89 10.89 0 0 1 1.711 6.12 10.758 10.758 0 0 1-1.6 5.9 10.773 10.773 0 0 1-4.569 3.939l6.8 9.792h-9.544zm5.627-11.35a4.223 4.223 0 0 0-1.4-3.383 6.2 6.2 0 0 0-4.142-1.2h-4.952v9.124h4.952a6.278 6.278 0 0 0 4.142-1.179 4.156 4.156 0 0 0 1.404-3.36zm42.587 20.251a29.448 29.448 0 0 1-7.428-.935 18.377 18.377 0 0 1-5.852-2.492l2.926-6.5a19.037 19.037 0 0 0 4.907 2.225 18.876 18.876 0 0 0 5.492.846q5.132 0 5.132-2.537a2.1 2.1 0 0 0-1.463-1.981 27.137 27.137 0 0 0-4.7-1.358 45.3 45.3 0 0 1-5.942-1.625 10.006 10.006 0 0 1-4.1-2.782 7.462 7.462 0 0 1-1.711-5.163 8.866 8.866 0 0 1 1.576-5.141 10.526 10.526 0 0 1 4.7-3.627 19.56 19.56 0 0 1 7.676-1.335 27.371 27.371 0 0 1 6.122.69 18.878 18.878 0 0 1 5.312 2.025l-2.746 6.543a18.506 18.506 0 0 0-8.733-2.4 7.391 7.391 0 0 0-3.872.779 2.331 2.331 0 0 0-1.215 2.025 2.011 2.011 0 0 0 1.447 1.875 26.277 26.277 0 0 0 4.637 1.291 43.827 43.827 0 0 1 5.965 1.625 10.306 10.306 0 0 1 4.1 2.76 7.318 7.318 0 0 1 1.733 5.141 8.694 8.694 0 0 1-1.576 5.074 10.723 10.723 0 0 1-4.727 3.627 19.312 19.312 0 0 1-7.656 1.352zm50.285-31.779v31.156h-8.914V272.23h-12.155v12.151h-8.914v-31.16h8.914v11.709h12.155v-11.709zm24.445 31.779a19.023 19.023 0 0 1-8.981-2.092 15.825 15.825 0 0 1-6.258-5.786 15.559 15.559 0 0 1-2.273-8.323 15.559 15.559 0 0 1 2.273-8.323 15.825 15.825 0 0 1 6.258-5.786 19.023 19.023 0 0 1 8.981-2.092 19.023 19.023 0 0 1 8.981 2.092 15.826 15.826 0 0 1 6.258 5.786 15.559 15.559 0 0 1 2.273 8.323 15.559 15.559 0 0 1-2.273 8.323 15.825 15.825 0 0 1-6.258 5.786 19.023 19.023 0 0 1-8.977 2.094zm0-7.3a8.515 8.515 0 0 0 4.322-1.113 8.046 8.046 0 0 0 3.061-3.138 9.414 9.414 0 0 0 1.125-4.651 9.414 9.414 0 0 0-1.125-4.651 8.045 8.045 0 0 0-3.061-3.138 8.515 8.515 0 0 0-4.322-1.113 8.515 8.515 0 0 0-4.322 1.113 8.045 8.045 0 0 0-3.061 3.138 9.414 9.414 0 0 0-1.125 4.651 9.414 9.414 0 0 0 1.125 4.651 8.046 8.046 0 0 0 3.061 3.138 8.515 8.515 0 0 0 4.326 1.116zm49.745-.134v6.81h-25.3v-31.153h24.715v6.81h-15.888v5.252h14v6.587h-14v5.7zm18.277 7.433a29.448 29.448 0 0 1-7.428-.935 18.377 18.377 0 0 1-5.852-2.492l2.926-6.5a19.037 19.037 0 0 0 4.907 2.225 18.876 18.876 0 0 0 5.492.846q5.132 0 5.132-2.537a2.1 2.1 0 0 0-1.461-1.974 27.137 27.137 0 0 0-4.7-1.358 45.3 45.3 0 0 1-5.942-1.625 10.006 10.006 0 0 1-4.1-2.782 7.462 7.462 0 0 1-1.711-5.163 8.867 8.867 0 0 1 1.576-5.141 10.526 10.526 0 0 1 4.7-3.627 19.56 19.56 0 0 1 7.676-1.335 27.371 27.371 0 0 1 6.122.69 18.878 18.878 0 0 1 5.312 2.025l-2.746 6.543a18.506 18.506 0 0 0-8.733-2.4 7.391 7.391 0 0 0-3.872.779 2.331 2.331 0 0 0-1.215 2.025 2.011 2.011 0 0 0 1.445 1.869 26.277 26.277 0 0 0 4.637 1.291 43.827 43.827 0 0 1 5.965 1.625 10.306 10.306 0 0 1 4.1 2.76 7.318 7.318 0 0 1 1.733 5.141 8.694 8.694 0 0 1-1.576 5.074 10.723 10.723 0 0 1-4.727 3.627 19.312 19.312 0 0 1-7.656 1.352zm24.4-.223a5.069 5.069 0 0 1-3.646-1.424 4.781 4.781 0 0 1-1.486-3.605 4.728 4.728 0 0 1 1.463-3.605 5.138 5.138 0 0 1 3.669-1.38 5.118 5.118 0 0 1 3.691 1.38 4.765 4.765 0 0 1 1.441 3.605 4.818 4.818 0 0 1-1.463 3.605 5.048 5.048 0 0 1-3.665 1.427zM500 25.5l.4-13.78L503.01 0h10.222l-2.455 11.717-5.315 13.783zm16.565 0l.6-13.78L519.775 0H530l-2.558 11.717-5.413 13.783z" fill="#F7F7F7"/></svg>