<svg xmlns="http://www.w3.org/2000/svg" width="1081" height="1080.999"><g fill="#000"><path d="M859.08 428.032c-4.256-10.8-9.023-19.19-33.637-19.19-17.025 0-24.322 7-24.322 14.034 0 7.686 6.056 14.155 24.808 18.314l39.791 10.6c26.049 6.956 38.672 27.63 38.672 49.47 0 12.161-2.627 26.754-14.155 38.915-8.61 8.975-21.647 20.82-64.867 20.82-59.442 0-78.973-37.577-78.973-60.269h46.212c4.548 16.587 15.931 22.887 38.453 22.887 15.615 0 29.016-5.57 29.016-17.512 0-11.358-9.729-15.639-22.255-19.068l-31.443-8.485c-15.153-4.621-27.824-8.318-36.775-15.882-23.422-19.847-21.719-55.673 3.746-74.3 14.107-10.312 28.554-15.687 51.489-15.687 26.948 0 42.344 7.686 54.457 16.052 10.75 7.3 23.519 25.246 23.519 39.4M161 301.096c.365 1.581 91.936 257.811 91.936 257.811h54.651l84.178-213.3H914.68l3.964-44.582H351.708L281.855 477.77 219.08 300.999h-57.959m451.973 165.607l68.247 92.155h42.709V376.519h-49.179v99.11l-61.777-99.11H565.91v182.242h47.184v-92.155zm-260.243 92.155h52.413l9.729-28.505h69.387l10.045 28.505h51.611L479.98 376.519h-55.575zm76.857-61.486l20.309-60.586 20.041 60.586h-40.35zM481.622 963.458c-3.363-3.04.439-7.578-1.733-10.892-2.63-2.43-6.66-1.615-9.924-2.268l-10.259-.339c-2.372-.492-2.919-3.026-4.08-4.689l-13.379-24.5c-.847-2.692.692-5.344 1.479-7.713l1.512-1.31c20.258-1.261 36.688-12.857 54.812-19.518 19.319-6.784 41.531-9.5 63.027-5.089a104.041 104.041 0 0 1 23.376 7.134c14.59 7.26 29.336 14.521 45.01 19.574 2.66 1.241 5.3 3.074 6.431 6.066 1.043 8.2-6.353 13.873-11.952 18.828-1.811 1.6-4.354 2.3-5.582 4.356.5 5.067-.487 10.256-4.267 13.608-6.654 5.684-15.036 8.651-24.084 6.991-2.958-.943-4.237-3.935-5.23-6.492-.722-1.2-2.512-1.088-3.7-.956-18.381 4.119-39.21 4.627-58.664 2.482l-10.238-1.674c-3.427.385-2.459 4.42-3.832 6.472-2.91 4.268-8.421 4.907-13.49 5.263-5.808-.101-11.134-1.54-15.233-5.334zm6.463-3.306c-.9.574-1.663 1.314-1.387 2.5 3.2 3.78 9.295 4.042 14.084 2.944a2.7 2.7 0 0 0 1.521-2.207l-.579-.9a16.648 16.648 0 0 0-9.468-2.877 16 16 0 0 0-4.171.54zm18.235 3.311l.886.166a1.573 1.573 0 0 0 .915-1.022c.169-1.043.643-2.662-.387-3.281-6.153-5.32-14.759-6.517-22.958-5.338a3.419 3.419 0 0 0-1.988 2.944c-.014.59-.025 1.339.715 1.5a28.445 28.445 0 0 1 7.789-1.1c5.695.001 11.355 1.803 15.028 6.131zm95.206-7.467c-1.209 1.168-2.719 2.332-2.459 4.272.426.9 1.312.92 2.063 1.229a13.965 13.965 0 0 0 10.8-5.16c.316-.884.485-1.772-.1-2.389l-.879-.6a11.072 11.072 0 0 0-2.023-.188 11.4 11.4 0 0 0-7.402 2.839zm-9.693 1.31a2.015 2.015 0 0 0 .252 2.382c3.357 3.639 4.213-2.742 6.615-3.6 4.086-3.792 10.074-6.06 15.4-4.019.588.155 1.621.469 2.086-.262.61-.59.33-1.785.2-2.68-1.009-1.8-3.4-1.255-5.331-1.437-7.455.309-13.919 4.066-19.222 9.615zm-130.735-10.3c-.154.59.444.6.731.9l20.643 1.872c18.415 1.68 35.275 7.2 53.859 7.986 27.634 2.145 54.064-3.163 76.762-15.542 7.811-4.32 17.119-8.908 22.322-16.546.155-.74.328-1.783-.4-2.245-12.538 9.6-25.778 17.826-40.3 22.619-22.014 8.073-48.224 9.523-73.009 6.091l-35.908-5.128c-7.713-1.031-15.275-2.216-23.462-2.368-.905.432-.924 1.472-1.236 2.365zm83.976-27.611l.082 3.275 2.018 28.157.275 1.041a70.959 70.959 0 0 0 11.473-.679 8.991 8.991 0 0 0-.524-4.026l-5.062-.1-.735-.6-.449-7.749.308-.442c1.346-.421 2.821.057 4.026-.674a18.708 18.708 0 0 0-.349-4.912 7.222 7.222 0 0 0-1.89-.086 5.617 5.617 0 0 1-2.569-.287l-.744-8.052.457-.587 5.372-.792a20.7 20.7 0 0 0-.216-4.169l-.449-.159c-3.727.235-7.443.171-11.025.845zm-1.781 32.1c.292.007.6-.289.456-.59l-1.968-30.683-.277-.74a14.575 14.575 0 0 0-5.22.64l.651 12.955-.31.444a9.165 9.165 0 0 0-1.339.118c-1.036.141-2.113.282-2.821-.351-.511-4.47-.436-8.779-1.239-13.11-1.646.264-3.427.087-4.923.355l-.162.888 1.433 27.258.414 1.494 5.051.537.446-.139-.694-10.573.3-.444a9.068 9.068 0 0 0 1.513-.162 4.784 4.784 0 0 1 2.8.094l.829 11.32a4.931 4.931 0 0 0 3.356.663c.265-.008.53-.015.8-.015a8.882 8.882 0 0 1 .903.045zm17.872-33.294l-.453.292 6.424 30.473.573 1.344c2.086-.408 4.468-.214 6.422-1.07l1.086-10.4c0-.592-.134-1.339.465-1.332a94.257 94.257 0 0 0 2.635 10.762 32.883 32.883 0 0 0 6.275-1.665c.774-9.81 1.4-19.766 1.588-30.027a17.777 17.777 0 0 0-4.912.355c-.009.3-.46.881-.171 1.189l-.809 11.739c-.011.592.123 1.341-.471 1.48q-1.456-6.278-2.453-12.547l-.708-1.649a12.337 12.337 0 0 1-2.033.086 7.289 7.289 0 0 0-3.187.415c-.546 5.64-.642 11-1.642 16.332-.942-5.076-1.89-10.149-2.393-15.369l-.581-.754zm-46.724 8.364c.754 7.449 1.214 14.9 1.966 22.351l4.75.685.159-.448-1.51-22.938.458-.585a19.843 19.843 0 0 0 4.315-.367l-.071-4.017-.439-.456c-4.613.216-9.529.424-14.15.783-.77 1.323-.057 3.122-.082 4.609l4.315-.068zm80.979-10.707c-2.081.262-4.454-.082-6.109.786l-2.161 28.374.137.745c1.787-.114 3.432-.977 5.237-1.539.472-1.624-.086-3.723.984-5.042 1.045-.123 2.24-.993 3.283-.533a30.725 30.725 0 0 1 1.123 3.448 10.931 10.931 0 0 0 4.793-1.706c-1.214-6.713-2.878-13.29-4.249-19.857-.915-1.372-.087-4.788-2.269-4.788a3.015 3.015 0 0 0-.77.117zm-102.334 7.039c.155 7.59.771 14.6 1.53 21.9 1.633.18 3.555.813 5.192.7.209-3.122-.629-6.112-.123-9.377 1.494-.417 2.98-.246 4.326-.66-.12-1.491.064-3.277-.364-4.472a5.933 5.933 0 0 0-1.937.011 3.579 3.579 0 0 1-2.37-.237c.022-1.344-.7-2.7.07-3.721a49.922 49.922 0 0 0 5.066-.654l-.077-3.716-.142-.448q-1.156-.066-2.281-.064a62.926 62.926 0 0 0-8.891.74zm-12.811.808l-.155.292 1 18.315.435.608a30.974 30.974 0 0 0 5.2.692c.188-2.229-.367-4.327-.03-6.4 1.2-.87 3.274-.087 4.478-.954l-.219-4.167-.436-.458a10.81 10.81 0 0 0-1.233.073c-1.07.1-2.2.2-2.922-.448-.135-1.048-.558-2.391.057-3.272l4.317-.36a1.435 1.435 0 0 0 .906-.581l-.378-3.584-.291-.6c-3.575.238-7.296.312-10.73.849zm-14.481 2.855c-2.149 3.678-1.659 9.193.058 12.941a6.785 6.785 0 0 0 6.328 3.691 7.25 7.25 0 0 0 5.866-3.466c1.712-4.131 1.664-9.489-.793-13.4a8.052 8.052 0 0 0-4.411-2.76 4.541 4.541 0 0 0-1.667-.322c-2.141.008-4.042 1.565-5.382 3.321zm136.925-11.01c.152 7.886.435 16.671 1.188 24.268a39.533 39.533 0 0 0 8.405-4.01 10.051 10.051 0 0 0-.369-4.172c-1.05.282-1.956 1.164-2.844.84-.938-5.518-.848-10.728-1.18-16.386l-.28-1.048h-.448a17.159 17.159 0 0 0-4.473.513zm9.835-.713c.321 6.7.489 13.693 1.118 20.108 3.445-1.423 6.608-3.6 9.765-5.326a8.882 8.882 0 0 0-.815-4.477c-1.342.421-2.4 1.589-3.892 1.564-.677-3.737-.453-7.6-.979-11.475l-.28-.9h-.518a16.78 16.78 0 0 0-4.4.512zm-157.576 9.286c.561 2.1 1.865 3.757 2.719 5.7.889.319 1.95-.558 2.85-1.134a28.043 28.043 0 0 0-2.573-5.7 5.752 5.752 0 0 0-2.997 1.14zm4.2-1.851a28.327 28.327 0 0 0 2.729 5.7c.895-.433 2.238-.7 2.851-1.583-1.156-1.811-1.416-3.9-2.728-5.561a4.427 4.427 0 0 0-2.854 1.45zm164.574-1.724l2.657.943c1.38-1.762 1.862-4.131 2.652-6.349l-2.662-1.093a22.446 22.446 0 0 0-2.649 6.505zm-4.425-1.719a5.247 5.247 0 0 0 2.946 1.25l2.5-6.351a8.5 8.5 0 0 0-3.1-.952 26.818 26.818 0 0 0-2.348 6.058zm-119.169-24.215c2.382 7.781 5.068 15.419 7.455 23.2l.868 1.207 6.854-.319.747-.285 3.787-19.72.615-.877 4.314-.369 40.962-2.516c1.344-.569.335-2.225.658-3.261.027-1.605-1.193-1.405-2.45-1.2a5.009 5.009 0 0 1-1.7.089l-46.468 2.858-.46.587-3.293 17.345-.754.43c-1.977-5.691-3.2-11.807-5.479-17.5a12.546 12.546 0 0 0-1.3-.063 30.594 30.594 0 0 0-4.358.399zm22.642 6.367c-1.441 5.627-2.734 11.258-3.885 17.19a16.489 16.489 0 0 0 4.616-.216l.489-2.669c.8-1 2.177-.968 3.5-.943.437.009.869.018 1.274-.009 1.786.032 1.451 2.111 2.178 3.161 1.637-.266 3.27.062 4.62-.508l-3.937-12.269-1.7-4.345c-.559-.011-1.155-.022-1.767-.022a17.79 17.79 0 0 0-5.388.635zm13.41-.792c-.1 5.208.39 10.869.738 15.931l.284.9a9.182 9.182 0 0 1 1.751-.1 4.807 4.807 0 0 0 2.569-.421l-.314-7c.152-.141.159-.442.453-.289 1.888 2.418 3.042 4.67 4.786 7.08.588-.037 1.21-.025 1.843-.014a12.1 12.1 0 0 0 3.812-.326c-.2-5.506-.539-11.167-1.026-16.833-1.489-.027-3.423-.209-4.771.36.253 2.389.055 5.058.321 7l-.6.139-4.341-6.774-.592-.308a25.519 25.519 0 0 0-4.915.66zm17.286 14.3c1.314 1.066 3.1 1.4 4.577 1.872 3.409.811 6.841.13 9.115-2.359a5.253 5.253 0 0 0 1-5.486c-1.407-4.345-6.492-2.8-9.433-4.787-.585-.606-.125-1.489.49-2.074 1.953-1.307 4.162.225 5.927.849.911-.872 1.975-2.193 1.85-3.384-3.523-2.3-9.031-2.4-12.354.214a5.428 5.428 0 0 0-1.282 5.188 5.565 5.565 0 0 0 4.094 3.794c2.072.783 6.114-.779 6.051 2.493a2.1 2.1 0 0 1-2.108 1.3c-2.236.408-3.994-.813-5.779-1.148a9.4 9.4 0 0 0-2.15 3.538zm-83.287 22.715c-.7-2.548-1.084-5.818-.142-8.337.761-1.02 2.382-.248 2.813.649.243 2.835 1.814 6.431-.458 8.77a2.706 2.706 0 0 1-.394.029 1.788 1.788 0 0 1-1.821-1.106zm123.406-3.971a34.96 34.96 0 0 1 .6-7.87 44.167 44.167 0 0 1 1.5 7.615 2.232 2.232 0 0 1-1.28.425 2.081 2.081 0 0 1-.822-.165zm-68.153-23.277c.321-1.332.2-2.819.815-4a12.554 12.554 0 0 1 1.564 3.9 4.366 4.366 0 0 1-1.479.347 1.645 1.645 0 0 1-.902-.243zM234.35 677.399a64.715 64.715 0 0 1-16.5-2.1 40.583 40.583 0 0 1-13-5.6l6.5-14.6a42.06 42.06 0 0 0 10.9 5 41.494 41.494 0 0 0 12.2 1.9q11.4 0 11.4-5.7 0-3-3.25-4.45a59.767 59.767 0 0 0-10.45-3.05 99.74 99.74 0 0 1-13.2-3.65 22.217 22.217 0 0 1-9.1-6.25q-3.8-4.3-3.8-11.6a20.082 20.082 0 0 1 3.5-11.55 23.421 23.421 0 0 1 10.45-8.15q6.95-3 17.05-3a60.144 60.144 0 0 1 13.6 1.55 41.648 41.648 0 0 1 11.8 4.55l-6.1 14.7q-10-5.4-19.4-5.4-5.9 0-8.6 1.75a5.246 5.246 0 0 0-2.7 4.55q0 2.8 3.2 4.2a57.858 57.858 0 0 0 10.3 2.9 96.49 96.49 0 0 1 13.25 3.65 22.881 22.881 0 0 1 9.1 6.2q3.85 4.25 3.85 11.55a19.689 19.689 0 0 1-3.5 11.4 23.858 23.858 0 0 1-10.5 8.15q-7 3.05-17 3.05zm50.1-71.4h19.8v70h-19.8zm110.5 0v70h-16.3l-30.9-37.3v37.3h-19.4v-70h16.3l30.9 37.3v-37.3zm58.9 71.4a41.426 41.426 0 0 1-19.75-4.65 34.772 34.772 0 0 1-13.75-12.95 35.716 35.716 0 0 1-5-18.8 35.716 35.716 0 0 1 5-18.8 34.772 34.772 0 0 1 13.75-12.95 41.426 41.426 0 0 1 19.75-4.65 42.392 42.392 0 0 1 17.3 3.4 33.285 33.285 0 0 1 12.8 9.8l-12.6 11.4q-6.8-8.2-16.5-8.2a20.364 20.364 0 0 0-10.15 2.5 17.351 17.351 0 0 0-6.9 7.05 21.7 21.7 0 0 0-2.45 10.45 21.7 21.7 0 0 0 2.45 10.45 17.351 17.351 0 0 0 6.9 7.05 20.364 20.364 0 0 0 10.15 2.5q9.7 0 16.5-8.2l12.6 11.4a33.285 33.285 0 0 1-12.8 9.8 42.392 42.392 0 0 1-17.3 3.4zm105.1-16.7v15.3h-56.2v-70h54.9v15.3h-35.3v11.8h31.1v14.8h-31.1v12.8zm86.5-54.7v70h-19.8v-54.7h-13v-15.3zm46.1-1.4q15.1 0 23.8 8.9t8.7 25.6q0 12-4.65 20.65a31.348 31.348 0 0 1-13.1 13.15 40.971 40.971 0 0 1-19.55 4.5 46.427 46.427 0 0 1-11.3-1.35 31.414 31.414 0 0 1-9.2-3.75l7.2-14.2q5.1 3.6 12.9 3.6 7.5 0 12.15-4.15t5.45-12.05q-6 5.1-15.7 5.1a26.673 26.673 0 0 1-12.1-2.75 21.776 21.776 0 0 1-8.75-7.8 20.873 20.873 0 0 1-3.25-11.55 22.025 22.025 0 0 1 3.65-12.55 23.932 23.932 0 0 1 9.9-8.4 32.04 32.04 0 0 1 13.85-2.95zm1.4 31.8a10.015 10.015 0 0 0 7-2.45 8.294 8.294 0 0 0 2.7-6.45 8.252 8.252 0 0 0-2.65-6.35 10.119 10.119 0 0 0-7.15-2.45 9.812 9.812 0 0 0-6.85 2.4 8.333 8.333 0 0 0-2.65 6.5 8.214 8.214 0 0 0 2.65 6.4 9.956 9.956 0 0 0 6.95 2.4zm83.7-5a26.673 26.673 0 0 1 12.1 2.75 21.776 21.776 0 0 1 8.75 7.8 20.873 20.873 0 0 1 3.25 11.55 22.024 22.024 0 0 1-3.65 12.55 23.932 23.932 0 0 1-9.9 8.4 32.278 32.278 0 0 1-13.95 2.95q-15 0-23.7-8.9t-8.7-25.6q0-12 4.65-20.65a31.423 31.423 0 0 1 13.05-13.15 40.675 40.675 0 0 1 19.5-4.5 48.567 48.567 0 0 1 11.4 1.3 28.945 28.945 0 0 1 9.2 3.8l-7.2 14.2q-5.1-3.6-12.9-3.6-7.6 0-12.3 4.2t-5.4 12.1q6-5.2 15.8-5.2zm-4.6 31.9a9.812 9.812 0 0 0 6.85-2.4 8.333 8.333 0 0 0 2.65-6.5 8.214 8.214 0 0 0-2.65-6.4 9.956 9.956 0 0 0-6.95-2.4 10.015 10.015 0 0 0-7 2.45 8.294 8.294 0 0 0-2.7 6.45 8.252 8.252 0 0 0 2.65 6.35 10.119 10.119 0 0 0 7.15 2.45zm79.5-31.9a26.673 26.673 0 0 1 12.1 2.75 21.776 21.776 0 0 1 8.75 7.8 20.873 20.873 0 0 1 3.25 11.55 22.024 22.024 0 0 1-3.65 12.55 23.932 23.932 0 0 1-9.9 8.4 32.278 32.278 0 0 1-13.95 2.95q-15 0-23.7-8.9t-8.7-25.6q0-12 4.65-20.65a31.423 31.423 0 0 1 13.05-13.15 40.676 40.676 0 0 1 19.5-4.5 48.566 48.566 0 0 1 11.4 1.3 28.944 28.944 0 0 1 9.2 3.8l-7.2 14.2q-5.1-3.6-12.9-3.6-7.6 0-12.3 4.2t-5.4 12.1q6-5.2 15.8-5.2zm-4.6 31.9a9.812 9.812 0 0 0 6.85-2.4 8.333 8.333 0 0 0 2.65-6.5 8.214 8.214 0 0 0-2.65-6.4 9.955 9.955 0 0 0-6.95-2.4 10.015 10.015 0 0 0-7 2.45 8.294 8.294 0 0 0-2.7 6.45 8.252 8.252 0 0 0 2.65 6.35 10.119 10.119 0 0 0 7.15 2.45zM405.48 745.559a16.57 16.57 0 0 1-7.9-1.86 13.909 13.909 0 0 1-5.5-5.18 14.286 14.286 0 0 1-2-7.52 14.286 14.286 0 0 1 2-7.52 13.909 13.909 0 0 1 5.5-5.18 16.57 16.57 0 0 1 7.9-1.86 16.957 16.957 0 0 1 6.92 1.36 13.314 13.314 0 0 1 5.12 3.92l-5.04 4.56a8.29 8.29 0 0 0-6.6-3.28 8.145 8.145 0 0 0-4.06 1 6.941 6.941 0 0 0-2.76 2.82 8.679 8.679 0 0 0-.98 4.18 8.679 8.679 0 0 0 .98 4.18 6.941 6.941 0 0 0 2.76 2.82 8.145 8.145 0 0 0 4.06 1 8.29 8.29 0 0 0 6.6-3.28l5.04 4.56a13.314 13.314 0 0 1-5.12 3.92 16.957 16.957 0 0 1-6.92 1.36zm37.84-6h-11.84l-2.2 5.44h-8.08l12.36-28h7.8l12.4 28h-8.24zm-2.32-5.84l-3.6-8.96-3.6 8.96zm19-16.72h7.92v21.72h13.36v6.28H460zm28.4 0h7.92v28h-7.92zm25.48 6.12v6.16h12.36v6.12h-12.36v9.6h-7.92v-28h21.96v6.12zm35.64 22.44a16.747 16.747 0 0 1-7.98-1.88 14.125 14.125 0 0 1-5.56-5.2 14.1 14.1 0 0 1-2.02-7.48 14.1 14.1 0 0 1 2.02-7.48 14.125 14.125 0 0 1 5.56-5.2 16.747 16.747 0 0 1 7.98-1.88 16.747 16.747 0 0 1 7.98 1.88 14.125 14.125 0 0 1 5.56 5.2 14.1 14.1 0 0 1 2.02 7.48 14.1 14.1 0 0 1-2.02 7.48 14.125 14.125 0 0 1-5.56 5.2 16.747 16.747 0 0 1-7.98 1.88zm0-6.56a7.5 7.5 0 0 0 3.84-1 7.193 7.193 0 0 0 2.72-2.82 8.538 8.538 0 0 0 1-4.18 8.538 8.538 0 0 0-1-4.18 7.193 7.193 0 0 0-2.72-2.82 7.5 7.5 0 0 0-3.84-1 7.5 7.5 0 0 0-3.84 1 7.193 7.193 0 0 0-2.72 2.82 8.538 8.538 0 0 0-1 4.18 8.538 8.538 0 0 0 1 4.18 7.193 7.193 0 0 0 2.72 2.82 7.5 7.5 0 0 0 3.84 1zm35.96-1.44h-4.32v7.44h-7.92v-28h12.8a15.97 15.97 0 0 1 6.6 1.26 9.788 9.788 0 0 1 4.32 3.6 9.87 9.87 0 0 1 1.52 5.5 9.752 9.752 0 0 1-1.42 5.3 9.6 9.6 0 0 1-4.06 3.54l6.04 8.8h-8.48zm5-10.2a3.816 3.816 0 0 0-1.24-3.04 5.462 5.462 0 0 0-3.68-1.08h-4.4v8.2h4.4a5.534 5.534 0 0 0 3.68-1.06 3.755 3.755 0 0 0 1.24-3.02zm43-10.36v28h-6.52l-12.36-14.92v14.92h-7.76v-28h6.52l12.36 14.92v-14.92zm9.6 0H651v28h-7.92zm36.32 22.56h-11.84l-2.2 5.44h-8.08l12.36-28h7.8l12.4 28h-8.24zm-2.32-5.84l-3.6-8.96-3.6 8.96zM232.8 846.119a33.494 33.494 0 0 1-15.96-3.76 28.25 28.25 0 0 1-11.12-10.4 28.208 28.208 0 0 1-4.04-14.96 28.208 28.208 0 0 1 4.04-14.96 28.25 28.25 0 0 1 11.12-10.4 33.494 33.494 0 0 1 15.96-3.76 33.494 33.494 0 0 1 15.96 3.76 28.25 28.25 0 0 1 11.12 10.4 28.209 28.209 0 0 1 4.04 14.96 28.208 28.208 0 0 1-4.04 14.96 28.25 28.25 0 0 1-11.12 10.4 33.494 33.494 0 0 1-15.96 3.76zm0-13.12a15 15 0 0 0 7.68-2 14.386 14.386 0 0 0 5.44-5.64 17.076 17.076 0 0 0 2-8.36 17.076 17.076 0 0 0-2-8.36 14.386 14.386 0 0 0-5.44-5.64 15 15 0 0 0-7.68-2 15 15 0 0 0-7.68 2 14.386 14.386 0 0 0-5.44 5.64 17.076 17.076 0 0 0-2 8.36 17.076 17.076 0 0 0 2 8.36 14.386 14.386 0 0 0 5.44 5.64 15 15 0 0 0 7.68 2zm59.28-31.76v12.32h24.72v12.24h-24.72v19.2h-15.84v-56h43.92v12.24zm55.36 0v12.32h24.72v12.24h-24.72v19.2H331.6v-56h43.92v12.24zm78.72.32h-17.2v-12.56h50.16v12.56H442v43.44h-15.84zm96.16-12.56v56h-15.84v-21.84h-21.6v21.84h-15.84v-56h15.84v21.04h21.6v-21.04zm60.16 43.76v12.24h-44.96v-56h43.92v12.24H553.2v9.44h24.88v11.84H553.2v10.24zm127.92-43.76l-18.16 56h-16.96l-10.72-34.08-11.2 34.08H636.4l-18.16-56h16.32l11.28 35.76 11.84-35.76h14.56l11.28 36.08 11.76-36.08zm45.28 45.12H732l-4.4 10.88h-16.16l24.72-56h15.6l24.8 56h-16.48zm-4.64-11.68l-7.2-17.92-7.2 17.92zm34-33.44h15.84v43.44h26.72v12.56h-42.56zm52.8 0h15.84v43.44h26.72v12.56h-42.56zM152 725.999h207v10H152zM721 725.999h207v10H721zM305 916.999h105v10H305zM670 916.999h105v10H670zM240.5 241.999a12.5 12.5 0 1 1-12.5 12.5 12.5 12.5 0 0 1 12.5-12.5zM829.5 241.999a12.5 12.5 0 1 1-12.5 12.5 12.5 12.5 0 0 1 12.5-12.5zM762.538 238.204l21-36.372 10.288 5.94-16.29 28.216 17.355 10.02-4.711 8.158zm-487.445-18.28l-11.173 6.451-4.71-8.159 32.58-18.809 4.71 8.156-11.12 6.422 16.29 28.214-10.287 5.94zm467.8 8.117l.151-8.8-16.348-6.939-6.227 6.221-11.156-4.736 33.475-31.417 10.771 4.572.71 45.929zm-9.571-22.444l9.942 4.22.278-14.481zm-424.924-14.122l10.936-4.642 6.167 14.524 14.912-6.329-6.166-14.526 10.935-4.642 16.413 38.661-10.937 4.642-6.4-15.077-14.913 6.329 6.4 15.079-10.936 4.642zm383.016 15.447l-12.115-26.415-5.793 21.617-11.243-3.012 10.869-40.57 9.448 2.532 12.115 26.415 5.793-21.617 11.243 3.014-10.871 40.568zm-327.78-38.078l31.5-9.629 2.686 8.777-20.255 6.194 2.068 6.771 17.846-5.456 2.6 8.491-17.845 5.456 2.245 7.344 21-6.42 2.686 8.78-32.248 9.857zm273.529 24.122l5.845-41.59 11.764 1.653-5.845 41.59zm-187.136-5.949a21.207 21.207 0 0 1-8.341-7.8 21.166 21.166 0 0 1-3.028-11.22 21.16 21.16 0 0 1 3.028-11.22 21.2 21.2 0 0 1 8.341-7.8 25.118 25.118 0 0 1 11.97-2.818 25.119 25.119 0 0 1 11.97 2.818 21.2 21.2 0 0 1 8.341 7.8 21.165 21.165 0 0 1 3.028 11.22 21.17 21.17 0 0 1-3.028 11.22 21.207 21.207 0 0 1-8.341 7.8 25.119 25.119 0 0 1-11.97 2.821 25.117 25.117 0 0 1-11.967-2.819zm6.21-29.52a10.8 10.8 0 0 0-4.079 4.231 12.793 12.793 0 0 0-1.5 6.271 12.8 12.8 0 0 0 1.5 6.27 10.776 10.776 0 0 0 4.079 4.229 11.234 11.234 0 0 0 5.76 1.5 11.232 11.232 0 0 0 5.759-1.5 10.8 10.8 0 0 0 4.082-4.229 12.825 12.825 0 0 0 1.5-6.27 12.814 12.814 0 0 0-1.5-6.271 10.815 10.815 0 0 0-4.082-4.231 11.253 11.253 0 0 0-5.759-1.5 11.255 11.255 0 0 0-5.757 1.502zm146.948 31.456a25.031 25.031 0 0 1-11.592-3.815 20.78 20.78 0 0 1-7.571-8.462 21.428 21.428 0 0 1-2.006-11.5 21.433 21.433 0 0 1 3.971-10.975 20.724 20.724 0 0 1 8.985-7.014 25.647 25.647 0 0 1 12.258-1.728 26.86 26.86 0 0 1 10.348 2.893 20.338 20.338 0 0 1 7.271 6.358l-8.127 6.154a13.324 13.324 0 0 0-9.751-5.55 11.821 11.821 0 0 0-8.952 2.5 11.74 11.74 0 0 0-4.05 8.41 12.7 12.7 0 0 0 .953 6.316 10.77 10.77 0 0 0 3.813 4.611 12.35 12.35 0 0 0 6.023 2.063 15.177 15.177 0 0 0 6.516-.816l1.005-11.475 10.459.916-1.516 17.333a27.39 27.39 0 0 1-8.595 3.224 33.621 33.621 0 0 1-6.668.68q-1.389-.001-2.77-.122zm-76.209-3.955l-7.619-11.162h-6.48v11.163h-11.88v-42h19.2a23.95 23.95 0 0 1 9.9 1.89 14.687 14.687 0 0 1 6.48 5.4 14.824 14.824 0 0 1 2.278 8.25 14.641 14.641 0 0 1-2.129 7.951 14.4 14.4 0 0 1-6.09 5.309l9.06 13.2zm-14.1-20.34h6.6a8.3 8.3 0 0 0 5.519-1.591 5.631 5.631 0 0 0 1.861-4.53 5.721 5.721 0 0 0-1.861-4.559 8.191 8.191 0 0 0-5.519-1.62h-6.6zm41.154 19.341v-42h11.88v42z"/><path d="M540.5 1080.999a549.2 549.2 0 0 1-55.263-2.791 541.893 541.893 0 0 1-53.667-8.191c-17.414-3.563-34.841-8.044-51.8-13.319-16.77-5.216-33.478-11.331-49.659-18.175-16.034-6.782-31.931-14.44-47.248-22.76-15.209-8.262-30.2-17.371-44.564-27.073-14.292-9.655-28.292-20.124-41.61-31.115-13.283-10.962-26.2-22.7-38.383-34.885s-23.92-25.1-34.885-38.383c-10.992-13.32-21.46-27.319-31.115-41.609-9.7-14.36-18.811-29.353-27.073-44.564-8.318-15.312-15.976-31.208-22.761-47.247-6.843-16.178-12.957-32.885-18.175-49.659-5.275-16.963-9.757-34.39-13.318-51.8a541.787 541.787 0 0 1-8.191-53.667A549.145 549.145 0 0 1 0 540.499a549.149 549.149 0 0 1 2.79-55.263 541.783 541.783 0 0 1 8.191-53.667c3.562-17.408 8.043-34.836 13.318-51.8 5.218-16.774 11.332-33.481 18.175-49.659 6.784-16.039 14.442-31.935 22.761-47.248 8.263-15.211 17.371-30.2 27.073-44.564 9.655-14.291 20.124-28.291 31.115-41.609 10.965-13.286 22.7-26.2 34.885-38.383s25.1-23.923 38.383-34.885c13.317-10.991 27.317-21.459 41.61-31.115 14.361-9.7 29.354-18.811 44.564-27.074 15.317-8.321 31.213-15.978 47.248-22.76 16.182-6.844 32.89-12.959 49.659-18.175 16.957-5.274 34.384-9.755 51.8-13.319a541.857 541.857 0 0 1 53.667-8.19A549.177 549.177 0 0 1 540.5-.001a549.16 549.16 0 0 1 55.263 2.791 541.769 541.769 0 0 1 53.667 8.19c17.413 3.563 34.84 8.044 51.8 13.319 16.768 5.215 33.475 11.33 49.659 18.175 16.032 6.781 31.929 14.439 47.248 22.76 15.21 8.263 30.2 17.372 44.564 27.074 14.293 9.656 28.293 20.125 41.61 31.115 13.283 10.962 26.2 22.7 38.383 34.885s23.924 25.1 34.885 38.383c10.987 13.313 21.456 27.313 31.115 41.609 9.7 14.363 18.812 29.357 27.073 44.564 8.321 15.317 15.979 31.214 22.761 47.248 6.845 16.184 12.96 32.892 18.175 49.659 5.274 16.956 9.755 34.384 13.319 51.8a541.878 541.878 0 0 1 8.19 53.667 549.242 549.242 0 0 1 2.788 55.261 549.236 549.236 0 0 1-2.791 55.263 541.868 541.868 0 0 1-8.19 53.667c-3.564 17.415-8.045 34.842-13.319 51.8-5.215 16.767-11.33 33.475-18.175 49.659-6.782 16.034-14.44 31.93-22.761 47.247-8.261 15.207-17.37 30.2-27.073 44.564-9.659 14.3-20.128 28.3-31.115 41.609-10.962 13.283-22.7 26.2-34.885 38.383s-25.1 23.923-38.383 34.885c-13.318 10.991-27.317 21.459-41.61 31.115-14.361 9.7-29.354 18.811-44.564 27.073-15.319 8.321-31.215 15.979-47.248 22.76-16.183 6.845-32.891 12.96-49.659 18.175-16.958 5.275-34.386 9.756-51.8 13.319a541.806 541.806 0 0 1-53.667 8.191 549.187 549.187 0 0 1-55.26 2.79zm0-1052c-282.042 0-511.5 229.458-511.5 511.5s229.458 511.5 511.5 511.5 511.5-229.457 511.5-511.5-229.458-511.5-511.5-511.5z"/><path d="M540.289 1031.575a499.2 499.2 0 0 1-50.231-2.536 492.509 492.509 0 0 1-48.78-7.445c-15.827-3.239-31.667-7.312-47.083-12.106-15.242-4.741-30.428-10.3-45.138-16.521-14.575-6.165-29.024-13.125-42.945-20.688-13.822-7.509-27.451-15.788-40.506-24.608-12.991-8.776-25.716-18.292-37.822-28.282-12.076-9.966-23.814-20.634-34.889-31.709s-21.742-22.812-31.708-34.888c-9.992-12.107-19.507-24.832-28.282-37.821-8.824-13.061-17.1-26.69-24.608-40.507-7.563-13.923-14.524-28.372-20.688-42.946-6.221-14.707-11.779-29.894-16.521-45.138-4.794-15.413-8.867-31.254-12.106-47.082a492.98 492.98 0 0 1-7.444-48.78 499.244 499.244 0 0 1-2.536-50.231 499.244 499.244 0 0 1 2.536-50.231 492.99 492.99 0 0 1 7.444-48.78c3.239-15.829 7.313-31.669 12.106-47.082 4.741-15.243 10.3-30.43 16.521-45.137 6.164-14.574 13.125-29.023 20.688-42.945 7.5-13.818 15.785-27.446 24.608-40.507 8.775-12.989 18.29-25.714 28.282-37.821 9.967-12.076 20.635-23.815 31.708-34.888s22.813-21.742 34.889-31.708c12.1-9.99 24.831-19.505 37.822-28.282 13.054-8.82 26.683-17.1 40.506-24.609 13.92-7.562 28.369-14.522 42.945-20.688 14.71-6.222 29.9-11.78 45.138-16.521 15.415-4.795 31.256-8.868 47.083-12.106a492.5 492.5 0 0 1 48.78-7.445 499.176 499.176 0 0 1 50.231-2.536 499.167 499.167 0 0 1 50.231 2.536 492.527 492.527 0 0 1 48.781 7.445c15.827 3.239 31.667 7.312 47.082 12.106 15.241 4.741 30.428 10.3 45.138 16.521 14.574 6.164 29.022 13.125 42.945 20.688 13.822 7.509 27.451 15.788 40.506 24.609 12.992 8.777 25.717 18.293 37.821 28.282 12.074 9.964 23.812 20.632 34.889 31.708s21.744 22.814 31.708 34.888c9.992 12.108 19.507 24.832 28.282 37.821 8.818 13.052 17.1 26.681 24.608 40.507 7.564 13.923 14.524 28.372 20.688 42.945 6.224 14.714 11.782 29.9 16.521 45.137 4.794 15.412 8.867 31.253 12.106 47.082a492.519 492.519 0 0 1 7.444 48.78 498.968 498.968 0 0 1 2.537 50.231 498.968 498.968 0 0 1-2.537 50.231 492.52 492.52 0 0 1-7.444 48.78c-3.239 15.829-7.312 31.67-12.106 47.082-4.739 15.237-10.3 30.424-16.521 45.138-6.164 14.574-13.125 29.023-20.688 42.946-7.51 13.825-15.79 27.454-24.608 40.507-8.775 12.989-18.29 25.714-28.282 37.821-9.964 12.073-20.632 23.812-31.708 34.888s-22.815 21.745-34.889 31.709c-12.1 9.989-24.829 19.5-37.821 28.282-13.057 8.821-26.685 17.1-40.506 24.608-13.923 7.563-28.373 14.524-42.945 20.688-14.709 6.222-29.9 11.78-45.138 16.521-15.414 4.794-31.255 8.867-47.082 12.106a492.535 492.535 0 0 1-48.781 7.445 499.192 499.192 0 0 1-50.231 2.536zm-.5-971.691c-264.623 0-479.909 215.285-479.909 479.907s215.291 479.908 479.913 479.908S1019.7 804.414 1019.7 539.791 804.415 59.884 539.793 59.884z"/></g></svg>